# xmcd
#
# Track frame offsets: 
#        150
#        24021
#        47226
#
# Disc length: 927 seconds
#
# Revision: 1
# Processed by: cddbd v1.5PL3 Copyright (c) Steve Scherf et al.
# Submitted via: ExactAudioCopy v0.95a5
#
DISCID=18039d03
DTITLE=Mary Chapin Carpenter - Between Here and Gone - Barnes and Noble 
DTITLE=Bonus Tracks
DYEAR=2004
DGENRE=Country
TTITLE0=Still Miss Someone [Live Acoustic]
TTITLE1=This Shirt [Live Acoustic
TTITLE2=Late For You [Live Acoustic]
EXTD=
EXTT0=
EXTT1=
EXTT2=
PLAYORDER=
